<?xml version="1.0" encoding="utf-8"?>
<!-- Generator: Adobe Illustrator 18.0.0, SVG Export Plug-In . SVG Version: 6.00 Build 0)  -->
<!DOCTYPE svg PUBLIC "-//W3C//DTD SVG 1.1//EN" "http://www.w3.org/Graphics/SVG/1.1/DTD/svg11.dtd">
<svg version="1.1" id="Layer_1" xmlns="http://www.w3.org/2000/svg" xmlns:xlink="http://www.w3.org/1999/xlink" x="0px" y="0px"
	 viewBox="0 0 188.7 33.5" enable-background="new 0 0 188.7 33.5" xml:space="preserve">
<g>
	<path fill="#E72D49" d="M18.3,30.8C18.2,30.9,18,31,17.8,31h-4.6c-0.4,0-0.7-0.2-0.7-0.6l-0.8-5.5h-4L7,30.4c0,0.4-0.4,0.6-0.7,0.6
		H1.7c-0.2,0-0.4-0.1-0.5-0.2C1,30.6,1,30.4,1,30.2L6.1,2.6c0-0.3,0.4-0.6,0.7-0.6h5.9c0.3,0,0.6,0.2,0.7,0.6l5.1,27.6
		C18.5,30.4,18.4,30.6,18.3,30.8z M9.7,12.4l-1.1,7h2.3L9.7,12.4z"/>
	<path fill="#E72D49" d="M35.3,2.7v27.6c0,0.4-0.3,0.7-0.7,0.7h-4.1c-0.3,0-0.5-0.2-0.6-0.5l-4.8-13.6v13.4c0,0.4-0.3,0.7-0.7,0.7
		h-4.3c-0.4,0-0.7-0.3-0.7-0.7V2.7c0-0.4,0.3-0.7,0.7-0.7h4.4c0.3,0,0.6,0.2,0.7,0.4l4.5,12.4V2.7c0-0.4,0.3-0.7,0.7-0.7h4.3
		C35,2.1,35.3,2.4,35.3,2.7z"/>
	<path fill="#E72D49" d="M53.3,11.1V22c0,5.9-2.8,9-8.2,9h-7c-0.4,0-0.7-0.3-0.7-0.7V2.8c0-0.4,0.3-0.7,0.7-0.7h7
		C50.4,2.1,53.3,5.2,53.3,11.1z M43.5,25.8h1c2,0,2.7-0.5,2.7-3.2V10.5c0-2.7-0.7-3.2-2.7-3.2h-1V25.8z"/>
	<path fill="#E72D49" d="M80,10.9c0,6.1-2.8,8.8-9.2,8.8h-1.4v10.6c0,0.4-0.3,0.7-0.7,0.7h-4.7c-0.4,0-0.7-0.3-0.7-0.7V2.7
		c0-0.4,0.3-0.7,0.7-0.7h6.8C77.1,2.1,80,4.8,80,10.9z M69.4,14.4h1.2c2.7,0,3.4-0.6,3.4-3.6c0-2.9-0.6-3.6-3.4-3.6h-1.2V14.4z"/>
	<path fill="#E72D49" d="M96.2,30.8c-0.1,0.2-0.3,0.2-0.5,0.2h-4.6c-0.4,0-0.7-0.2-0.7-0.6l-0.8-5.5h-4l-0.8,5.5
		c0,0.4-0.4,0.6-0.7,0.6h-4.6c-0.2,0-0.4-0.1-0.5-0.2c-0.1-0.2-0.2-0.4-0.2-0.6l5.1-27.6c0-0.3,0.4-0.6,0.7-0.6h5.9
		c0.3,0,0.6,0.2,0.7,0.6l5.1,27.6C96.4,30.4,96.4,30.6,96.2,30.8z M87.7,12.4l-1.1,7h2.3L87.7,12.4z"/>
	<path fill="#E72D49" d="M111.4,2.3c0.1,0.2,0.2,0.4,0.1,0.6l-5.7,16v11.3c0,0.4-0.3,0.7-0.7,0.7h-4.7c-0.4,0-0.7-0.3-0.7-0.7V19
		L93.9,3c-0.1-0.2,0-0.4,0.1-0.6c0.1-0.2,0.4-0.3,0.6-0.3h4.8c0.3,0,0.6,0.2,0.7,0.5l2.7,8.5l2.6-8.5c0.1-0.3,0.4-0.5,0.7-0.5h4.8
		C111,2.1,111.2,2.2,111.4,2.3z"/>
	<path fill="#E72D49" d="M135,2.3c0.1,0.2,0.2,0.4,0.1,0.6l-5.7,16v11.3c0,0.4-0.3,0.7-0.7,0.7H124c-0.4,0-0.7-0.3-0.7-0.7V19
		l-5.7-16c-0.1-0.2,0-0.4,0.1-0.6c0.1-0.2,0.4-0.3,0.6-0.3h4.8c0.3,0,0.6,0.2,0.7,0.5l2.7,8.5l2.6-8.5c0.1-0.3,0.4-0.5,0.7-0.5h4.8
		C134.7,2.1,134.9,2.2,135,2.3z"/>
	<path fill="#E72D49" d="M151.2,9.4v14.2c0,4.8-3,7.7-7.9,7.7c-4.9,0-7.9-3-7.9-7.7V9.4c0-4.8,3-7.7,7.9-7.7
		C148.2,1.7,151.2,4.7,151.2,9.4z M141.4,23.5c0,2,0.6,2.4,1.9,2.4c1.2,0,1.9-0.4,1.9-2.4v-14c0-2-0.6-2.4-1.9-2.4
		c-1.3,0-1.9,0.4-1.9,2.4V23.5z"/>
	<path fill="#E72D49" d="M168.7,2.8v20.6c0,5-3,8-7.9,8c-5,0-7.9-3-7.9-8V2.8c0-0.4,0.3-0.7,0.7-0.7h4.7c0.4,0,0.7,0.3,0.7,0.7v20.8
		c0,2.1,0.9,2.3,1.9,2.3c0.9,0,1.9-0.3,1.9-2.3V2.8c0-0.4,0.3-0.7,0.7-0.7h4.7C168.4,2.1,168.7,2.4,168.7,2.8z"/>
	<path fill="#E72D49" d="M187.4,30.1c0,0.2,0,0.4-0.1,0.6c-0.1,0.2-0.3,0.3-0.6,0.3h-4.8c-0.3,0-0.6-0.2-0.6-0.5l-3.2-10.9
		c-0.4,0-0.9,0-1.3,0.1v10.6c0,0.4-0.3,0.7-0.7,0.7h-4.7c-0.4,0-0.7-0.3-0.7-0.7V2.8c0-0.4,0.3-0.7,0.7-0.7h6.7
		c5.9,0,8.7,2.8,8.7,8.8c0,4.3-1.6,6.4-3.2,7.3L187.4,30.1z M176.8,14.5h1c2.1,0,2.8-0.6,2.8-3.6c0-3-0.7-3.6-2.8-3.6h-1V14.5z"/>
</g>
</svg>
